# xmcd
# 
# Track frame offsets:
#     150
#     23525
#     48357
#     92487
#     108837
#     122120
#     142062
#     164345
#     186312
#     196212
#     215225
#     237687
#     250400
# 
# Disc length: 3925
# 
# Revision: 9
# Processed by: cddbd v1.5.2PL0 Copyright (c) Steve Scherf et al.
# Submitted via: fre:ac v1.0.31
# 
DISCID=bd0f530d
DTITLE=Original Soundtrack - John Williams - Steven Spielberg: The Ultimate Collection
DYEAR=2017
DGENRE=Soundtrack
TTITLE0=Raiders of the Lost Ark: The Raiders March
TTITLE1=Always: Theme
TTITLE2=E.T. the Extra-Terrestrial: Adventures on Earth
TTITLE3=Sugarland Express: Theme
TTITLE4=Jaws: Theme
TTITLE5=Jaws: Out to Sea/The Shark Cage Fugue
TTITLE6=Empire of the Sun: Exsultate justi
TTITLE7=Indiana Jones and the Temple of Doom: Parade of the Slave Children
TTITLE8=E.T. the Extra-Terrestrial: Over the Moon
TTITLE9=1941: March
TTITLE10=Empire of the Sun: Cadillac of the Skies
TTITLE11=Indiana Jones and the Last Crusade: Scherzo for Motorcycle and Orchestra
TTITLE12=Close Encounters of the Third Kind: Excerpts
EXTD=
EXTT0=
EXTT1=
EXTT2=
EXTT3=
EXTT4=
EXTT5=
EXTT6=
EXTT7=
EXTT8=
EXTT9=
EXTT10=
EXTT11=
EXTT12=
PLAYORDER=
